<svg width="117" height="35" viewBox="0 0 117 35" fill="none" xmlns="http://www.w3.org/2000/svg">
<g clip-path="url(#clip0_78_129)">
<path d="M72.328 27.1067C65.5597 31.9485 55.7494 34.5317 47.3029 34.5317C35.4595 34.5317 24.7975 30.2804 16.7312 23.2096C16.0975 22.6536 16.6653 21.8959 17.4258 22.3289C26.1308 27.2445 36.8943 30.2017 48.0127 30.2017C55.5111 30.2017 63.7598 28.696 71.3445 25.5715C72.4903 25.0991 73.4485 26.2997 72.328 27.1067Z" fill="white"/>
<path d="M75.141 23.982C74.2791 22.9093 69.4222 23.4752 67.2421 23.7261C66.5779 23.8049 66.4765 23.2439 67.0748 22.8405C70.9431 20.1981 77.2907 20.9608 78.0309 21.8465C78.7711 22.7371 77.8382 28.9124 74.2031 31.8598C73.6454 32.3124 73.1131 32.0713 73.3615 31.471C74.1777 29.493 76.008 25.0596 75.141 23.982Z" fill="white"/>
<path d="M67.395 4.18677V1.61826C67.395 1.22954 67.6992 0.96875 68.0642 0.96875H79.9127C80.2929 0.96875 80.5971 1.23446 80.5971 1.61826V3.81773C80.592 4.18677 80.2726 4.66898 79.7048 5.43166L73.5651 13.9392C75.8466 13.8851 78.2548 14.2148 80.3233 15.3465C80.7898 15.6024 80.9165 15.9763 80.952 16.3454V19.0861C80.952 19.46 80.5261 19.898 80.08 19.6716C76.4347 17.8166 71.5929 17.6148 67.5623 19.6913C67.1516 19.9078 66.7207 19.4748 66.7207 19.1008V16.4979C66.7207 16.0797 66.7258 15.3662 67.1567 14.7314L74.2698 4.83135H68.0794C67.6992 4.83135 67.395 4.57057 67.395 4.18677Z" fill="white"/>
<path d="M24.1715 20.213H20.5667C20.222 20.1884 19.9482 19.9374 19.9229 19.6176V1.66263C19.9229 1.30343 20.2321 1.01804 20.6174 1.01804H23.9788C24.3286 1.03279 24.6075 1.29359 24.6328 1.61834V3.96543H24.6987C25.5758 1.69707 27.2235 0.63916 29.4442 0.63916C31.7003 0.63916 33.1097 1.69707 34.1237 3.96543C34.9957 1.69707 36.9781 0.63916 39.1024 0.63916C40.6132 0.63916 42.266 1.24438 43.2749 2.60245C44.4157 4.11304 44.1825 6.30759 44.1825 8.23152L44.1774 19.5635C44.1774 19.9227 43.8681 20.213 43.4828 20.213H39.8832C39.5232 20.1884 39.2342 19.9079 39.2342 19.5635V10.0472C39.2342 9.28943 39.3052 7.39995 39.1328 6.68155C38.8641 5.47603 38.058 5.13651 37.0136 5.13651C36.1416 5.13651 35.229 5.70237 34.8589 6.60775C34.4888 7.51312 34.5242 9.02864 34.5242 10.0472V19.5635C34.5242 19.9227 34.215 20.213 33.8297 20.213H30.23C29.865 20.1884 29.5811 19.9079 29.5811 19.5635L29.576 10.0472C29.576 8.04454 29.9157 5.09715 27.3554 5.09715C24.7646 5.09715 24.866 7.97073 24.866 10.0472V19.5635C24.866 19.9227 24.5568 20.213 24.1715 20.213Z" fill="white"/>
<path d="M90.7935 0.638916C96.1423 0.638916 99.0372 5.0969 99.0372 10.7653C99.0372 16.2419 95.8381 20.5867 90.7935 20.5867C85.5411 20.5867 82.6816 16.1287 82.6816 10.5734C82.6816 4.98373 85.5766 0.638916 90.7935 0.638916ZM90.8239 4.3047C88.1673 4.3047 88 7.81795 88 10.0076C88 12.2021 87.9645 16.8865 90.7935 16.8865C93.5871 16.8865 93.7189 13.1075 93.7189 10.8047C93.7189 9.28918 93.653 7.47843 93.1815 6.04164C92.7759 4.79183 91.9698 4.3047 90.8239 4.3047Z" fill="white"/>
<path d="M105.974 20.2127H102.384C102.025 20.1881 101.736 19.9077 101.736 19.5632L101.73 1.60334C101.761 1.27366 102.06 1.0178 102.425 1.0178H105.766C106.08 1.03255 106.339 1.23922 106.41 1.51969V4.26533H106.476C107.485 1.81 108.899 0.638916 111.389 0.638916C113.006 0.638916 114.583 1.20478 115.597 2.75474C116.54 4.19153 116.54 6.6075 116.54 8.34444V19.6469C116.499 19.9618 116.2 20.2127 115.845 20.2127H112.23C111.901 20.1881 111.627 19.9519 111.591 19.6469V9.89441C111.591 7.93112 111.825 5.05754 109.335 5.05754C108.458 5.05754 107.652 5.62832 107.252 6.49433C106.745 7.5916 106.679 8.68396 106.679 9.89441V19.5632C106.674 19.9224 106.359 20.2127 105.974 20.2127Z" fill="white"/>
<path d="M57.9486 11.6361V10.8784C55.3427 10.8784 52.5897 11.4196 52.5897 14.4015C52.5897 15.912 53.3959 16.9355 54.7799 16.9355C55.7939 16.9355 56.7014 16.3303 57.2743 15.3462C57.9841 14.1357 57.9486 12.9991 57.9486 11.6361ZM61.5838 20.1634C61.3455 20.37 61.0007 20.3848 60.732 20.247C59.5355 19.2826 59.3226 18.8348 58.6635 17.9147C56.6862 19.8731 55.2869 20.4586 52.7215 20.4586C49.6897 20.4586 47.3271 18.6429 47.3271 15.0067C47.3271 12.1675 48.914 10.2338 51.1702 9.28904C53.1271 8.45255 55.8598 8.30493 57.9486 8.07367V7.62098C57.9486 6.78941 58.0146 5.80531 57.5126 5.08692C57.0715 4.44233 56.2299 4.17662 55.4897 4.17662C54.1158 4.17662 52.8889 4.86057 52.5897 6.27768C52.5289 6.5926 52.2906 6.90259 51.9661 6.91735L48.4679 6.55323C48.1738 6.48926 47.8494 6.258 47.9305 5.82008C48.7366 1.70653 52.5644 0.466553 55.9917 0.466553C57.7458 0.466553 60.0375 0.91924 61.4215 2.20841C63.1757 3.79774 63.0084 5.91848 63.0084 8.2262V13.6781C63.0084 15.3167 63.7081 16.0351 64.3672 16.9208C64.6004 17.2357 64.6511 17.6145 64.357 17.8507C63.6219 18.4461 62.3139 19.5532 61.5939 20.1732L61.5838 20.1634" fill="white"/>
<path d="M10.6908 11.6364V10.8786C8.08489 10.8786 5.33192 11.4199 5.33192 14.4017C5.33192 15.9123 6.13804 16.9358 7.52213 16.9358C8.53611 16.9358 9.44363 16.3305 10.0165 15.3464C10.7263 14.136 10.6908 12.9993 10.6908 11.6364ZM14.326 20.1636C14.0877 20.3703 13.7429 20.385 13.4742 20.2473C12.2777 19.2828 12.0648 18.8351 11.4057 17.9149C9.42842 19.8733 8.02912 20.4588 5.46374 20.4588C2.43192 20.4588 0.0693359 18.6432 0.0693359 15.0069C0.0693359 12.1678 1.65622 10.234 3.91234 9.28928C5.86933 8.45279 8.60202 8.30518 10.6908 8.07391V7.62123C10.6908 6.78966 10.7567 5.80555 10.2548 5.08716C9.81374 4.44257 8.97213 4.17686 8.23192 4.17686C6.85797 4.17686 5.63105 4.86082 5.33192 6.27792C5.27108 6.59284 5.03279 6.90283 4.70832 6.91759L1.21007 6.55347C0.916013 6.48951 0.591538 6.25824 0.672656 5.82032C1.47878 1.70677 5.30657 0.466797 8.73384 0.466797C10.488 0.466797 12.7796 0.919484 14.1637 2.20866C15.9179 3.79798 15.7506 5.91873 15.7506 8.22645V13.6784C15.7506 15.3169 16.4503 16.0353 17.1094 16.921C17.3426 17.2359 17.3933 17.6148 17.0992 17.851C16.3641 18.4464 15.056 19.5535 14.3361 20.1735L14.326 20.1636" fill="white"/>
</g>
<defs>
<clipPath id="clip0_78_129">
<rect width="116.611" height="34.1587" fill="white" transform="translate(0 0.420654)"/>
</clipPath>
</defs>
</svg>
