<svg width="87" height="43" viewBox="0 0 87 43" fill="none" xmlns="http://www.w3.org/2000/svg">
<g clip-path="url(#clip0_78_138)">
<path d="M22.7221 6.87813L16.9047 8.08678L16.8778 26.7944C16.8778 30.2496 19.538 32.4829 23.0715 32.4829C25.033 32.4829 26.4706 32.1282 27.2633 31.7078V27.2674C26.4975 27.5696 22.7356 28.6468 22.7356 25.2048V16.902H27.2633V11.936H22.7356L22.7221 6.87813ZM34.693 13.657L34.3302 11.936H29.1711V32.0625H35.1229V18.5179C36.5336 16.7049 38.9116 17.0596 39.6775 17.2961V11.936C38.8713 11.6602 36.0902 11.1478 34.693 13.657ZM47.0937 4.15869L41.1016 5.40675V10.1625L47.0937 8.91443V4.15869ZM6.58638 17.861C6.58638 16.9545 7.36563 16.5998 8.61511 16.5867C10.4289 16.5867 12.7397 17.1253 14.5535 18.0843V12.5929C12.5785 11.8309 10.6035 11.5288 8.62854 11.5288C3.79185 11.5288 0.567383 13.9986 0.567383 18.1238C0.567383 24.5874 9.63619 23.5364 9.63619 26.3215C9.63619 27.3988 8.68229 27.7535 7.35219 27.7535C5.37721 27.7535 2.82451 26.9521 0.822653 25.888V31.1429C3.03947 32.0757 5.28316 32.4698 7.33876 32.4698C12.2964 32.4698 15.7089 30.3941 15.7089 26.1901C15.7089 19.2404 6.58638 20.4885 6.58638 17.861ZM86.5397 22.2358C86.5397 16.2582 83.5839 11.5419 77.9142 11.5419C72.2446 11.5419 68.7917 16.2582 68.7917 22.1964C68.7917 29.2249 72.8626 32.4698 78.6666 32.4698C81.5149 32.4698 83.6511 31.8392 85.2768 30.959V26.5711C83.6511 27.3725 81.7836 27.8586 79.419 27.8586C77.0947 27.8586 75.0525 27.0572 74.7838 24.3246H86.4591C86.4859 24.0225 86.5397 22.8007 86.5397 22.2358ZM74.7301 20.0287C74.7301 17.4012 76.3826 16.2977 77.8739 16.2977C79.3384 16.2977 80.8969 17.4012 80.8969 20.0287H74.7301ZM59.5617 11.5419C57.2239 11.5419 55.7192 12.6192 54.8862 13.368L54.5772 11.9229H49.324V38.8283L55.2892 37.5934L55.3027 30.9984C56.1625 31.6159 57.4389 32.4698 59.5213 32.4698C63.7938 32.4698 67.69 29.4219 67.69 22.0124C67.7034 15.2335 63.7535 11.5419 59.5617 11.5419ZM58.1375 27.6352C56.7402 27.6352 55.9073 27.136 55.3295 26.5317L55.2892 17.861C55.9073 17.191 56.7671 16.7049 58.1375 16.7049C60.314 16.7049 61.8188 19.0959 61.8188 22.1438C61.8322 25.2836 60.3543 27.6352 58.1375 27.6352ZM41.115 32.0625H47.1072V11.936H41.115V32.0625Z" fill="white"/>
</g>
<defs>
<clipPath id="clip0_78_138">
<rect width="85.9857" height="41.226" fill="white" transform="translate(0.553711 0.886963)"/>
</clipPath>
</defs>
</svg>
