<svg width="139" height="46" viewBox="0 0 139 46" fill="none" xmlns="http://www.w3.org/2000/svg">
<path d="M12.5311 35.1482H7.61475V22.8923H4.26562V18.902H7.61462V16.0627C7.61462 12.698 9.09589 10.2849 13.999 10.2849C15.036 10.2849 16.664 10.4939 16.664 10.4939V14.1991H14.954C13.2117 14.1991 12.5314 14.7291 12.5314 16.1943V18.902H16.5988L16.2366 22.8923H12.5313L12.5311 35.1482ZM23.8119 18.5832C23.7402 18.5832 23.6665 18.5858 23.5936 18.5876C19.0348 18.5876 16.9491 22.0167 16.9491 26.8844C16.9491 33.0164 19.6546 35.4706 23.6292 35.4706C25.9032 35.4706 27.3973 34.5135 28.3054 32.7273V35.1499H32.9816V18.9037H28.3054V21.4022C27.5639 19.7947 26.0281 18.6022 23.8119 18.5832ZM25.0009 22.4221C26.9156 22.4221 28.0648 23.7576 28.0648 26.0293L28.0692 28.3495C28.0692 29.8806 27.12 31.6719 25.0009 31.6719C21.743 31.6719 21.83 28.1541 21.83 26.9824C21.83 23.0412 23.5658 22.4221 25.0009 22.4221ZM34.87 27.0277C34.87 25.0535 34.7756 18.5937 43.1916 18.5937C46.57 18.5937 47.9807 19.6679 47.9807 19.6679L46.8469 23.1846C46.8469 23.1846 45.438 22.4088 43.6022 22.4088C41.251 22.4088 39.7507 23.7718 39.7507 26.1701L39.7533 27.8897C39.7533 30.1941 41.2009 31.7324 43.6071 31.7324C45.2795 31.7324 46.8209 30.9493 46.8209 30.9493L47.9518 34.3925C47.9518 34.3925 46.662 35.4735 43.2153 35.4735C35.2018 35.4735 34.8702 29.6779 34.8702 27.0277H34.87ZM75.3988 18.5876C79.9577 18.5876 82.0763 22.0167 82.0763 26.8844C82.0763 33.0164 79.3707 35.4706 75.396 35.4706C73.122 35.4706 71.441 34.5136 70.5329 32.7273V35.1499L65.9156 35.1481V10.7789L70.818 10.3513V21.1821C71.5255 19.2872 73.8508 18.5876 75.3989 18.5876H75.3988ZM74.0244 22.4221C72.1097 22.4221 70.818 23.7576 70.818 26.0293L70.8134 28.3495C70.8105 29.8806 71.7079 31.6719 74.0244 31.6719C77.2823 31.6719 77.1953 28.1541 77.1953 26.9824C77.1953 23.0412 75.4596 22.4221 74.0244 22.4221ZM56.4868 18.601C51.3161 18.601 48.5863 21.4202 48.5863 26.4301V27.3609C48.5863 33.8633 52.4198 35.5374 56.99 35.5374C61.4322 35.5374 63.443 34.2949 63.443 34.2949L62.5256 30.9861C62.5256 30.9861 60.1604 31.9925 57.5778 31.9925C54.9005 31.9925 53.749 31.3101 53.4539 28.7371H63.8349V26.0827C63.8349 20.6482 60.7713 18.6009 56.4866 18.6009L56.4868 18.601ZM56.6114 21.9143C58.4012 21.9143 59.561 23.0118 59.4973 25.5572H53.4629C53.5675 22.8782 54.8183 21.9144 56.6114 21.9144V21.9143ZM91.8515 18.5787C86.5416 18.5787 83.7462 21.571 83.7462 26.9333C83.7462 34.2907 88.5649 35.4751 91.8604 35.4751C96.6848 35.4751 99.8944 32.8777 99.8944 27.0001C99.8944 20.8826 96.2855 18.5787 91.8515 18.5787ZM91.7847 22.4354C94.1195 22.4354 95.0447 24.1828 95.0447 26.1719V27.882C95.0447 30.2916 93.7501 31.6853 91.7758 31.6853C89.9294 31.6853 88.6317 30.3816 88.6317 27.882V26.1719C88.6317 23.5061 90.1758 22.4354 91.7847 22.4354ZM109.661 18.5787C104.351 18.5787 101.556 21.571 101.556 26.9333C101.556 34.2907 106.374 35.4751 109.67 35.4751C114.494 35.4751 117.704 32.8777 117.704 27.0001C117.704 20.8826 114.095 18.5787 109.661 18.5787ZM109.594 22.4354C111.929 22.4354 112.854 24.1828 112.854 26.1719V27.882C112.854 30.2916 111.559 31.6853 109.585 31.6853C107.739 31.6853 106.441 30.3816 106.441 27.882V26.1719C106.441 23.5061 107.985 22.4354 109.594 22.4354ZM119.556 35.1482V10.7789L124.473 10.3515V26.6853L129.351 18.9022H134.543L129.455 26.9632L134.739 35.1482H129.532L124.473 27.2006V35.1482H119.556Z" fill="white"/>
</svg>
