<svg width="133" height="46" viewBox="0 0 133 46" fill="none" xmlns="http://www.w3.org/2000/svg">
<path d="M36.2134 16.6963H22.4494V20.8534H32.2117C31.728 26.6721 26.9645 29.1697 22.4659 29.1697C21.0408 29.1761 19.6287 28.8934 18.312 28.3382C16.9954 27.783 15.8006 26.9664 14.7975 25.936C13.7943 24.9057 13.0029 23.6822 12.4693 22.3371C11.9358 20.992 11.6708 19.5522 11.69 18.1018C11.69 11.8085 16.4766 6.96331 22.4791 6.96331C27.1096 6.96331 29.8382 9.9678 29.8382 9.9678L32.6966 6.95324C32.6966 6.95324 29.0247 2.79395 22.3296 2.79395C13.804 2.79395 7.20898 10.1177 7.20898 18.0279C7.20898 25.7792 13.4127 33.338 22.5451 33.338C30.5781 33.338 36.4586 27.7363 36.4586 19.4535C36.4586 17.7056 36.209 16.6963 36.209 16.6963H36.2134Z" fill="white"/>
<path d="M47.4893 13.685C41.8408 13.685 37.793 18.18 37.793 23.4202C37.793 28.7399 41.7177 33.3177 47.5553 33.3177C52.8388 33.3177 57.167 29.2076 57.167 23.5343C57.167 17.0442 52.1319 13.6838 47.4893 13.6838V13.685ZM47.5443 17.541C50.3213 17.541 52.9532 19.8271 52.9532 23.5097C52.9532 27.1129 50.3323 29.465 47.5311 29.465C44.4529 29.465 42.0343 26.9562 42.0343 23.4806C42.0343 20.0789 44.4309 17.541 47.5531 17.541H47.5443Z" fill="white"/>
<path d="M68.5802 13.685C62.9316 13.685 58.8838 18.18 58.8838 23.4202C58.8838 28.7399 62.8085 33.3177 68.6461 33.3177C73.9296 33.3177 78.2578 29.2076 78.2578 23.5343C78.2578 17.0442 73.2228 13.6838 68.5802 13.6838V13.685ZM68.6351 17.541C71.4121 17.541 74.044 19.8271 74.044 23.5097C74.044 27.1129 71.4231 29.465 68.6219 29.465C65.5437 29.465 63.1251 26.9562 63.1251 23.4806C63.1251 20.0789 65.5217 17.541 68.6439 17.541H68.6351Z" fill="white"/>
<path d="M89.2617 13.6963C84.0772 13.6963 80.0029 18.3177 80.0029 23.5054C80.0029 29.4137 84.7269 33.3324 89.1716 33.3324C91.92 33.3324 93.3822 32.2212 94.4485 30.9467V32.8825C94.4485 36.2697 92.4279 38.2985 89.3783 38.2985C86.432 38.2985 84.9545 36.0683 84.4312 34.8038L80.7241 36.3704C82.0389 39.2015 84.6862 42.1523 89.4091 42.1523C94.5761 42.1523 98.492 38.8479 98.492 31.9168V14.286H94.4639V15.9488C93.2216 14.5837 91.5198 13.6963 89.2639 13.6963H89.2617ZM89.6355 17.5456C92.1773 17.5456 94.7871 19.7545 94.7871 23.5266C94.7871 27.3614 92.1816 29.4741 89.5795 29.4741C86.8157 29.4741 84.2443 27.1913 84.2443 23.5624C84.2443 19.7937 86.9157 17.5456 89.6355 17.5456Z" fill="white"/>
<path d="M116.491 13.6726C111.601 13.6726 107.495 17.6338 107.495 23.475C107.495 29.6585 112.072 33.3255 116.95 33.3255C121.03 33.3255 123.546 31.0539 125.03 29.0173L121.696 26.7592C120.83 28.1244 119.384 29.4616 116.971 29.4616C114.259 29.4616 113.013 27.9509 112.24 26.4851L125.172 21.0244L124.512 19.4242C123.263 16.2911 120.348 13.6726 116.491 13.6726ZM116.659 17.4481C118.422 17.4481 119.689 18.4015 120.228 19.5451L111.591 23.2187C111.218 20.3743 113.867 17.4481 116.648 17.4481H116.659Z" fill="white"/>
<path d="M101.32 32.7436H105.568V3.80981H101.32V32.7436Z" fill="white"/>
</svg>
