<svg width="100" height="100" viewBox="0 0 100 100" fill="none" xmlns="http://www.w3.org/2000/svg">
<circle cx="50" cy="50" r="50" fill="white"/>
<path d="M40.9004 59.3166H39.4004C39.4004 59.8416 39.6749 60.3284 40.1241 60.6001C40.5733 60.8718 41.1319 60.8888 41.5968 60.6451L40.9004 59.3166ZM26.4004 71.2332C26.4004 72.0617 27.072 72.7332 27.9004 72.7332C28.7288 72.7332 29.4004 72.0617 29.4004 71.2332H26.4004ZM47.9265 55.6333L48.6229 56.9618L48.6787 56.9326L48.7318 56.8988L47.9265 55.6333ZM51.2816 60.9533L51.986 62.2776L52.0322 62.253L52.0766 62.2253L51.2816 60.9533ZM42.5563 65.5941L41.8519 64.2698L41.8057 64.2944L41.7613 64.3221L42.5563 65.5941ZM36.4972 64.0694L37.7996 63.3252L36.4972 64.0694ZM35.7028 59.6557C35.2917 58.9364 34.3755 58.6865 33.6562 59.0975C32.9369 59.5086 32.687 60.4248 33.098 61.1441L35.7028 59.6557ZM52.3115 56.6685L53.5978 55.8967V55.8967L52.3115 56.6685ZM42.4004 66.8999C42.4004 66.0715 41.7288 65.3999 40.9004 65.3999C40.072 65.3999 39.4004 66.0715 39.4004 66.8999H42.4004ZM39.4004 71.2332C39.4004 72.0617 40.072 72.7332 40.9004 72.7332C41.7288 72.7332 42.4004 72.0617 42.4004 71.2332H39.4004ZM51.5516 54.1779L50.7463 55.4434L53.2772 57.054L54.0826 55.7885L51.5516 54.1779ZM61.6659 43.8719C62.1106 43.173 61.9046 42.2458 61.2057 41.8011C60.5068 41.3563 59.5797 41.5623 59.1349 42.2613L61.6659 43.8719ZM35.0671 33.3166C35.0671 34.145 35.7386 34.8166 36.5671 34.8166C37.3955 34.8166 38.0671 34.145 38.0671 33.3166H35.0671ZM64.7337 48.0666C63.9053 48.0666 63.2337 48.7381 63.2337 49.5666C63.2337 50.395 63.9053 51.0666 64.7337 51.0666V48.0666ZM45.2337 35.0666C44.4053 35.0666 43.7337 35.7381 43.7337 36.5666C43.7337 37.395 44.4053 38.0666 45.2337 38.0666V35.0666ZM62.5671 38.0666C63.3955 38.0666 64.0671 37.395 64.0671 36.5666C64.0671 35.7381 63.3955 35.0666 62.5671 35.0666V38.0666ZM45.2337 41.5666C44.4053 41.5666 43.7337 42.2381 43.7337 43.0666C43.7337 43.895 44.4053 44.5666 45.2337 44.5666V41.5666ZM53.9004 44.5666C54.7288 44.5666 55.4004 43.895 55.4004 43.0666C55.4004 42.2381 54.7288 41.5666 53.9004 41.5666V44.5666ZM37.2337 43.0666C37.2337 44.6314 35.9652 45.8999 34.4004 45.8999V48.8999C37.6221 48.8999 40.2337 46.2882 40.2337 43.0666H37.2337ZM34.4004 45.8999C32.8356 45.8999 31.5671 44.6314 31.5671 43.0666H28.5671C28.5671 46.2882 31.1787 48.8999 34.4004 48.8999V45.8999ZM31.5671 43.0666C31.5671 41.5018 32.8356 40.2332 34.4004 40.2332V37.2332C31.1787 37.2332 28.5671 39.8449 28.5671 43.0666H31.5671ZM34.4004 40.2332C35.9652 40.2332 37.2337 41.5018 37.2337 43.0666H40.2337C40.2337 39.8449 37.6221 37.2332 34.4004 37.2332V40.2332ZM42.4004 59.3166V58.2332H39.4004V59.3166H42.4004ZM26.4004 58.2332V71.2332H29.4004V58.2332H26.4004ZM41.5968 60.6451L48.6229 56.9618L47.23 54.3048L40.2039 57.9881L41.5968 60.6451ZM50.5772 59.629L41.8519 64.2698L43.2607 66.9185L51.986 62.2776L50.5772 59.629ZM37.7996 63.3252L35.7028 59.6557L33.098 61.1441L35.1949 64.8136L37.7996 63.3252ZM48.7318 56.8988C49.5125 56.402 50.5492 56.6467 51.0253 57.4402L53.5978 55.8967C52.2533 53.656 49.3258 52.9649 47.1212 54.3678L48.7318 56.8988ZM41.7613 64.3221C40.3972 65.1747 38.5977 64.7219 37.7996 63.3252L35.1949 64.8136C36.838 67.6892 40.5428 68.6214 43.3513 66.8661L41.7613 64.3221ZM29.4004 58.2332C29.4004 55.4718 31.639 53.2332 34.4004 53.2332V50.2332C29.9821 50.2332 26.4004 53.815 26.4004 58.2332H29.4004ZM51.0253 57.4402C51.4867 58.2092 51.2471 59.206 50.4866 59.6813L52.0766 62.2253C54.2241 60.8832 54.9007 58.0682 53.5978 55.8967L51.0253 57.4402ZM42.4004 58.2332C42.4004 53.815 38.8187 50.2332 34.4004 50.2332V53.2332C37.1618 53.2332 39.4004 55.4718 39.4004 58.2332H42.4004ZM39.4004 66.8999V71.2332H42.4004V66.8999H39.4004ZM54.0826 55.7885L61.6659 43.8719L59.1349 42.2613L51.5516 54.1779L54.0826 55.7885ZM38.0671 33.3166V32.2332H35.0671V33.3166H38.0671ZM40.9004 29.3999H66.9004V26.3999H40.9004V29.3999ZM69.7337 32.2332V45.2332H72.7337V32.2332H69.7337ZM66.9004 48.0666H64.7337V51.0666H66.9004V48.0666ZM69.7337 45.2332C69.7337 46.798 68.4652 48.0666 66.9004 48.0666V51.0666C70.1221 51.0666 72.7337 48.4549 72.7337 45.2332H69.7337ZM66.9004 29.3999C68.4652 29.3999 69.7337 30.6684 69.7337 32.2332H72.7337C72.7337 29.0116 70.1221 26.3999 66.9004 26.3999V29.3999ZM38.0671 32.2332C38.0671 30.6684 39.3356 29.3999 40.9004 29.3999V26.3999C37.6787 26.3999 35.0671 29.0116 35.0671 32.2332H38.0671ZM45.2337 38.0666H62.5671V35.0666H45.2337V38.0666ZM45.2337 44.5666H53.9004V41.5666H45.2337V44.5666Z" fill="#0A70E7"/>
</svg>
