<svg width="102" height="102" viewBox="0 0 102 102" fill="none" xmlns="http://www.w3.org/2000/svg">
<circle cx="51" cy="51" r="51" fill="white"/>
<g clip-path="url(#clip0_78_374)">
<path d="M62.8945 50.8774C62.7818 50.531 62.4823 50.2786 62.1218 50.2263L54.6839 49.1475L51.3558 42.4089C51.1946 42.0823 50.862 41.8756 50.4978 41.8756H50.4975C50.1331 41.8757 49.8006 42.0826 49.6394 42.4093L46.3151 49.1498L38.8778 50.2325C38.5174 50.2849 38.2179 50.5376 38.1054 50.884C37.9929 51.2306 38.0868 51.6109 38.3478 51.8651L43.7311 57.1097L42.4625 64.5176C42.401 64.8766 42.5487 65.2395 42.8434 65.4535C43.0102 65.5744 43.2075 65.6361 43.4059 65.6361C43.5583 65.6361 43.7114 65.5997 43.8514 65.526L50.5028 62.0268L57.1562 65.5224C57.4787 65.6918 57.8693 65.6634 58.1641 65.4493C58.4588 65.2351 58.6063 64.8722 58.5446 64.5131L57.2721 57.106L62.6526 51.8586C62.9133 51.6042 63.0071 51.2239 62.8945 50.8774ZM55.5755 56.087C55.3501 56.3069 55.2471 56.6238 55.3005 56.9343L56.3299 62.9261L50.9479 60.0984C50.6691 59.952 50.336 59.9521 50.0571 60.0987L44.6764 62.9292L45.7027 56.9368C45.7559 56.6262 45.6528 56.3095 45.4272 56.0897L41.0725 51.8472L47.0887 50.9714C47.4004 50.926 47.6698 50.7301 47.8092 50.4476L50.4983 44.995L53.1906 50.4461C53.33 50.7285 53.5995 50.9242 53.9112 50.9695L59.928 51.8422L55.5755 56.087Z" fill="#6D759A"/>
<path d="M39.3516 57.6303C39.2389 57.2839 38.9394 57.0314 38.5789 56.9791L35.1089 56.4759L33.5562 53.3321C33.395 53.0055 33.0624 52.7988 32.6981 52.7988H32.6979C32.3336 52.7989 32.0009 53.0058 31.8398 53.3326L30.2888 56.4771L26.8192 56.9822C26.4588 57.0346 26.1593 57.2873 26.0468 57.6337C25.9343 57.9803 26.0282 58.3606 26.2892 58.6148L28.8007 61.0615L28.2089 64.5176C28.1474 64.8765 28.295 65.2394 28.5898 65.4534C28.7565 65.5744 28.9539 65.636 29.1523 65.636C29.3047 65.636 29.4576 65.5997 29.5977 65.5262L32.7008 63.8937L35.8048 65.5244C36.1273 65.6937 36.518 65.6654 36.8126 65.4512C37.1074 65.2371 37.2548 64.8741 37.1931 64.5151L36.5996 61.0595L39.1098 58.6114C39.3705 58.3571 39.4642 57.9767 39.3516 57.6303ZM34.9029 60.0405C34.6775 60.2604 34.5745 60.5773 34.6279 60.8877L34.9784 62.928L33.1457 61.9652C32.867 61.8187 32.5338 61.8189 32.255 61.9654L30.4228 62.9293L30.7722 60.8886C30.8254 60.578 30.7224 60.2614 30.4968 60.0415L29.014 58.5969L31.0626 58.2987C31.3743 58.2533 31.6437 58.0574 31.783 57.7749L32.6987 55.9183L33.6155 57.7745C33.7549 58.0569 34.0244 58.2527 34.3361 58.2979L36.3849 58.595L34.9029 60.0405Z" fill="#6D759A"/>
<path d="M74.9533 57.6337C74.8409 57.2872 74.5414 57.0346 74.1809 56.9821L70.7113 56.477L69.1603 53.3325C68.9992 53.0058 68.6665 52.7989 68.3023 52.7988H68.302C67.9377 52.7988 67.6052 53.0055 67.4439 53.332L65.8912 56.4759L62.4212 56.9791C62.0608 57.0313 61.7613 57.2838 61.6485 57.6302C61.5359 57.9767 61.6296 58.357 61.8904 58.6114L64.4005 61.0595L63.807 64.515C63.7454 64.8741 63.8928 65.2369 64.1875 65.4512C64.4822 65.6655 64.8728 65.6938 65.1954 65.5243L68.2993 63.8936L71.4025 65.5261C71.5425 65.5997 71.6954 65.6361 71.8479 65.6361C72.0462 65.6361 72.2436 65.5745 72.4104 65.4533C72.7052 65.2393 72.8528 64.8764 72.7913 64.5174L72.1995 61.0614L74.7109 58.6147C74.9718 58.3605 75.0658 57.9802 74.9533 57.6337ZM70.5034 60.0415C70.2779 60.2613 70.1748 60.5781 70.228 60.8885L70.5774 62.9292L68.7451 61.9653C68.6056 61.892 68.4527 61.8553 68.2996 61.8553C68.1466 61.8553 67.9937 61.892 67.8546 61.9651L66.0219 62.928L66.3724 60.8877C66.4258 60.5771 66.3228 60.2603 66.0975 60.0404L64.6154 58.5949L66.6642 58.2979C66.9759 58.2526 67.2454 58.0569 67.3849 57.7745L68.3016 55.9182L69.2173 57.7748C69.3566 58.0574 69.626 58.2533 69.9377 58.2986L71.9862 58.5968L70.5034 60.0415Z" fill="#6D759A"/>
<path d="M63.4268 40.829C63.0529 40.4554 62.4471 40.4554 62.0733 40.829L58.9151 43.9872C58.5413 44.361 58.5413 44.967 58.9151 45.3407C59.102 45.5275 59.3468 45.621 59.5918 45.621C59.8368 45.621 60.0817 45.5276 60.2686 45.3407L63.4268 42.1825C63.8005 41.8087 63.8005 41.2027 63.4268 40.829Z" fill="#6D759A"/>
<path d="M65.6873 38.5679C65.5084 38.3898 65.2624 38.2875 65.0098 38.2875C64.7581 38.2875 64.5112 38.3899 64.3331 38.5679C64.155 38.7459 64.0527 38.9928 64.0527 39.2445C64.0527 39.4971 64.1551 39.7431 64.3331 39.921C64.5112 40.1 64.7581 40.2015 65.0098 40.2015C65.2623 40.2015 65.5084 40.1001 65.6873 39.921C65.8653 39.7431 65.9668 39.4972 65.9668 39.2445C65.9668 38.9928 65.8653 38.7459 65.6873 38.5679Z" fill="#6D759A"/>
<path d="M36.6668 38.5679C36.4879 38.3898 36.2419 38.2875 35.9893 38.2875C35.7376 38.2875 35.4916 38.3899 35.3126 38.5679C35.1345 38.7459 35.0322 38.9928 35.0322 39.2445C35.0322 39.4971 35.1346 39.7431 35.3126 39.921C35.4916 40.1 35.7385 40.2015 35.9893 40.2015C36.2409 40.2015 36.4879 40.1001 36.6668 39.921C36.8448 39.7431 36.9472 39.4962 36.9472 39.2445C36.9472 38.9928 36.8447 38.7459 36.6668 38.5679Z" fill="#6D759A"/>
<path d="M41.9561 43.8582L38.9268 40.829C38.5529 40.4554 37.9471 40.4554 37.5733 40.829C37.1995 41.2029 37.1995 41.8089 37.5733 42.1826L40.6025 45.2118C40.7895 45.3986 41.0343 45.4921 41.2793 45.4921C41.5242 45.4921 41.7691 45.3986 41.9561 45.2118C42.3298 44.8379 42.3298 44.232 41.9561 43.8582Z" fill="#6D759A"/>
<path d="M50.5 31.364C49.9715 31.364 49.543 31.7925 49.543 32.321V38.8163C49.543 39.3448 49.9715 39.7734 50.5 39.7734C51.0286 39.7734 51.457 39.3448 51.457 38.8163V32.321C51.457 31.7925 51.0285 31.364 50.5 31.364Z" fill="#6D759A"/>
</g>
<defs>
<clipPath id="clip0_78_374">
<rect width="49" height="43" fill="white" transform="translate(26 30)"/>
</clipPath>
</defs>
</svg>
