<svg width="102" height="102" viewBox="0 0 102 102" fill="none" xmlns="http://www.w3.org/2000/svg">
<circle cx="51" cy="51" r="51" fill="white"/>
<g clip-path="url(#clip0_78_207)">
<path d="M60.9932 53.3512L56.0561 51.157C55.7073 51.002 55.4821 50.6552 55.4821 50.2737V48.918C57.1406 47.5965 58.2065 45.5617 58.2065 43.2813V41.3728C58.7529 41.0709 59.1146 40.4875 59.1146 39.8341V39.6489C59.1146 35.6755 55.8819 32.4427 51.9084 32.4427H50.0923C46.1188 32.4427 42.8861 35.6755 42.8861 39.6489V41.3295C42.8861 41.9038 43.1333 42.4241 43.5641 42.757C43.6372 42.8134 43.7141 42.8631 43.7942 42.906V43.2812C43.7942 45.5615 44.8601 47.5964 46.5184 48.9177V50.2736C46.5184 50.6551 46.2931 51.0019 45.9444 51.1568L41.0074 53.3511C39.3905 54.0697 38.3457 55.6773 38.3457 57.4467V68.7073C38.3457 69.1765 38.7261 69.5569 39.1953 69.5569C39.6645 69.5569 40.0449 69.1765 40.0449 68.7073V57.4468C40.0449 57.3484 40.0519 57.2511 40.0621 57.1545L42.3371 59.4295C42.6911 59.7836 42.8861 60.2543 42.8861 60.7551V68.7074C42.8861 69.1766 43.2665 69.557 43.7357 69.557C44.205 69.557 44.5854 69.1766 44.5854 68.7074V60.7551C44.5854 59.8005 44.2137 58.903 43.5386 58.228L40.8266 55.5158C41.0709 55.2623 41.3641 55.0521 41.6976 54.9039L46.5514 52.7466L50.1509 56.3462V68.7073C50.1509 69.1765 50.5313 69.5569 51.0005 69.5569C51.4697 69.5569 51.8501 69.1765 51.8501 68.7073V56.3463L55.4496 52.7468L60.3033 54.9039C60.6368 55.0521 60.9299 55.2623 61.1743 55.5159L58.4622 58.228C57.7872 58.903 57.4155 59.8005 57.4155 60.7551V68.7074C57.4155 69.1766 57.7959 69.557 58.2651 69.557C58.7343 69.557 59.1147 69.1766 59.1147 68.7074V60.7551C59.1147 60.2544 59.3097 59.7836 59.6638 59.4295L61.9386 57.1546C61.9488 57.2512 61.9558 57.3482 61.9558 57.4467V68.7073C61.9558 69.1765 62.3362 69.5569 62.8054 69.5569C63.2746 69.5569 63.655 69.1765 63.655 68.7073V57.4468C63.6547 55.6775 62.61 54.0698 60.9932 53.3512ZM51.0001 54.7928L47.8417 51.6343C48.0819 51.2303 48.2175 50.7627 48.2175 50.2737V49.928C49.0743 50.288 50.0144 50.4875 51.0003 50.4875C51.9862 50.4875 52.9262 50.2881 53.7828 49.9281V50.2737C53.7828 50.7629 53.9184 51.2303 54.1587 51.6344L51.0001 54.7928ZM51.0003 48.7881C47.9638 48.7882 45.4933 46.3178 45.4933 43.2813V42.8992C46.0235 42.6891 46.5409 42.3547 47.0363 41.8976C47.381 41.5794 47.4027 41.0418 47.0843 40.697C46.7661 40.3523 46.2287 40.3307 45.8838 40.6489C45.4589 41.0412 45.0343 41.2946 44.6222 41.4022C44.6122 41.4048 44.6048 41.4059 44.5996 41.4064C44.5935 41.3945 44.5852 41.3696 44.5852 41.3296V39.649C44.5852 36.6125 47.0557 34.1421 50.0922 34.1421H51.9083C54.9449 34.1421 57.4153 36.6125 57.4153 39.649V39.8343C57.4153 39.8618 57.3987 39.8857 57.377 39.89C52.2894 40.8948 49.7376 39.0011 48.8767 38.1401C48.5449 37.8083 48.0069 37.8083 47.6752 38.1401C47.3434 38.4719 47.3434 39.0099 47.6752 39.3416C50.3135 41.9799 54.1634 42.0275 56.5072 41.7459V43.2812C56.5072 46.3177 54.0368 48.7881 51.0003 48.7881Z" fill="black"/>
<path d="M37.3204 48.73V46.9135C37.3204 44.6971 36.1686 42.7459 34.433 41.623C34.5401 41.2792 34.5961 40.9191 34.5961 40.557C34.5961 38.5863 32.9929 36.9832 31.0223 36.9832C29.0517 36.9832 27.4485 38.5864 27.4485 40.557C27.4485 40.9237 27.504 41.2803 27.6114 41.6233C25.8759 42.746 24.7242 44.6972 24.7242 46.9135V48.7296C24.7242 50.876 25.8041 52.7739 27.4484 53.9115V55.7798C27.4484 56.1483 27.2437 56.4796 26.9142 56.6444L23.9755 58.1137C22.7569 58.7231 22 59.9479 22 61.3104V68.7075C22 69.1767 22.3804 69.5571 22.8496 69.5571C23.3188 69.5571 23.6992 69.1767 23.6992 68.7075V61.6778L25.0833 63.0619C25.4373 63.416 25.6324 63.8867 25.6324 64.3875V68.7075C25.6324 69.1767 26.0128 69.5571 26.482 69.5571C26.9512 69.5571 27.3316 69.1767 27.3316 68.7075V64.3875C27.3316 63.4329 26.9598 62.5355 26.2849 61.8604L24.3585 59.9341C24.3492 59.9248 24.3393 59.9168 24.3297 59.908C24.4506 59.8013 24.5862 59.7084 24.7355 59.6337L27.6742 58.1644C27.8247 58.0891 27.9648 58.0002 28.0954 57.9014L30.1727 59.9787V68.7076C30.1727 69.1768 30.5531 69.5572 31.0223 69.5572C31.4915 69.5572 31.8719 69.1768 31.8719 68.7076V59.9786L33.9493 57.9013C34.08 58.0002 34.22 58.0891 34.3706 58.1643L35.1809 58.5695C35.3029 58.6306 35.4325 58.6595 35.5602 58.6595C35.8719 58.6595 36.172 58.4873 36.3208 58.1897C36.5307 57.77 36.3606 57.2596 35.9409 57.0498L35.1306 56.6446C34.8009 56.4798 34.5962 56.1486 34.5962 55.7802V53.9118C36.2405 52.7743 37.3204 50.8762 37.3204 48.73ZM31.0223 38.6824C32.056 38.6824 32.8969 39.5234 32.8969 40.557C32.8969 40.6708 32.8867 40.7824 32.8672 40.8917C32.2834 40.7125 31.664 40.6154 31.0223 40.6154C30.3815 40.6154 29.763 40.7122 29.18 40.8909C29.1604 40.7816 29.1477 40.6706 29.1477 40.557C29.1477 39.5233 29.9886 38.6824 31.0223 38.6824ZM31.0223 42.3147C33.5581 42.3147 35.6212 44.3778 35.6212 46.9136V47.2215C32.084 48.3045 29.9759 45.6137 29.8859 45.4958C29.738 45.2988 29.512 45.1756 29.2664 45.1581C29.0208 45.1409 28.7796 45.2307 28.6054 45.4048C27.7945 46.2158 27.0001 46.607 26.4265 46.7958C26.4893 44.3143 28.526 42.3147 31.0223 42.3147ZM31.0223 58.4251L29.059 56.4618C29.1163 56.2427 29.1477 56.0143 29.1477 55.7799V54.7429C29.7401 54.928 30.3698 55.0278 31.0223 55.0278C31.6748 55.0278 32.3045 54.928 32.8969 54.7429V55.7799C32.8969 56.0143 32.9283 56.2428 32.9856 56.4618L31.0223 58.4251ZM31.0223 53.3285C28.4865 53.3285 26.4234 51.2655 26.4234 48.7296V48.5536C27.101 48.398 28.1055 48.0363 29.1535 47.1934C29.5243 47.5433 30.0542 47.9724 30.729 48.3404C31.5272 48.7758 32.6295 49.1785 33.976 49.1785C34.4877 49.1785 35.0352 49.119 35.6139 48.9824C35.4822 51.4012 33.4733 53.3285 31.0223 53.3285Z" fill="black"/>
<path d="M78.0243 56.2977L73.2695 53.9203C72.94 53.7554 72.7353 53.4242 72.7353 53.0558V51.8517C73.8483 50.8636 74.5514 49.4235 74.5514 47.8217V46.8547C74.571 46.8547 74.5903 46.8552 74.6099 46.8552C75.0791 46.8552 75.4595 46.4748 75.4595 46.0056V44.1895C75.4595 41.2174 73.0415 38.7994 70.0695 38.7994H68.2533C65.2813 38.7994 62.8633 41.2174 62.8633 44.1895V46.0056C62.8633 46.4748 63.2437 46.8552 63.7129 46.8552C63.7199 46.8552 63.7403 46.855 63.7713 46.8538V47.8217C63.7713 49.4237 64.4746 50.8637 65.5876 51.8518V53.0559C65.5876 53.4244 65.3829 53.7557 65.0532 53.9204C64.6335 54.1302 64.4634 54.6405 64.6733 55.0602C64.8221 55.3579 65.1222 55.5301 65.4339 55.5301C65.5615 55.5301 65.6911 55.5012 65.8131 55.4403C65.9637 55.3649 66.1038 55.276 66.2344 55.1772L68.3118 57.2546V68.7077C68.3118 69.1769 68.6922 69.5573 69.1614 69.5573C69.6306 69.5573 70.011 69.1769 70.011 68.7077V57.2543L72.0882 55.177C72.219 55.2759 72.359 55.3648 72.5095 55.44L77.1105 57.7406L75.7149 59.1361C75.04 59.8111 74.6682 60.7085 74.6682 61.6632V68.7074C74.6682 69.1767 75.0486 69.5571 75.5178 69.5571C75.9871 69.5571 76.3675 69.1767 76.3675 68.7074V61.6632C76.3675 61.1624 76.5624 60.6917 76.9165 60.3375L78.2384 59.0156C78.2785 59.1694 78.3005 59.3297 78.3005 59.4942V68.7074C78.3005 69.1767 78.6809 69.5571 79.1501 69.5571C79.6193 69.5571 79.9997 69.1767 79.9997 68.7074V59.4942C79.9998 58.1318 79.2429 56.907 78.0243 56.2977ZM64.5624 44.9812V44.1894H64.5625C64.5625 42.1543 66.2182 40.4985 68.2533 40.4985H70.0695C72.1046 40.4985 73.7603 42.1543 73.7603 44.1894V45.1331C70.067 44.9339 67.8381 43.4967 67.8165 43.4825C67.6728 43.3867 67.5087 43.3398 67.3455 43.3398C67.1262 43.3398 66.9087 43.4245 66.7444 43.5886C65.9315 44.4015 65.135 44.7928 64.5624 44.9812ZM69.1614 55.7009L67.1981 53.7376C67.2554 53.5186 67.2868 53.2902 67.2868 53.0558V52.8749C67.8709 53.0923 68.5024 53.2117 69.1614 53.2117C69.8203 53.2117 70.4519 53.0923 71.036 52.8749V53.0558C71.036 53.2902 71.0672 53.5186 71.1247 53.7376L69.1614 55.7009ZM69.1614 51.5126C67.1263 51.5126 65.4706 49.857 65.4706 47.8217V46.4521C66.0656 46.2143 66.7589 45.8363 67.4644 45.2352C68.3566 45.6994 70.2233 46.5018 72.8522 46.7669V47.8217C72.8522 49.8568 71.1965 51.5126 69.1614 51.5126Z" fill="black"/>
</g>
<defs>
<clipPath id="clip0_78_207">
<rect width="58" height="58" fill="white" transform="translate(22 22)"/>
</clipPath>
</defs>
</svg>
