<svg width="155" height="47" viewBox="0 0 155 47" fill="none" xmlns="http://www.w3.org/2000/svg">
<g clip-path="url(#clip0_78_140)">
<path fill-rule="evenodd" clip-rule="evenodd" d="M146.032 59.2259H147.744C149.651 59.2259 151.48 58.4752 152.829 57.1388C154.178 55.8025 154.935 53.9901 154.935 52.1003V50.3224C154.935 55.2396 150.949 59.2259 146.032 59.2259ZM55.965 59.2259C51.0478 59.2259 47.0615 55.2397 47.0615 50.3224V52.1003C47.0615 53.9901 47.8192 55.8025 49.1679 57.1388C50.5166 58.4752 52.3458 59.2259 54.2531 59.2259H55.965ZM47.0615 -3.12676C47.0615 -8.04403 51.0478 -12.0303 55.965 -12.0303H54.2531C52.3458 -12.0303 50.5166 -11.2795 49.1679 -9.94323C47.8192 -8.60692 47.0615 -6.79449 47.0615 -4.90466V-3.12676ZM146.032 -12.0303C150.949 -12.0303 154.935 -8.04404 154.935 -3.12676V-4.90466C154.935 -6.79449 154.178 -8.60692 152.829 -9.94323C151.48 -11.2795 149.651 -12.0303 147.744 -12.0303H146.032ZM88.8719 18.681C88.9455 18.645 89.0263 18.6258 89.1084 18.6247L92.6502 18.6158L92.7281 18.6128C92.9512 18.6137 93.1676 18.6884 93.343 18.825C93.5183 18.9616 93.6426 19.1524 93.696 19.367L95.7786 26.4095L100.813 19.0879L100.816 19.0849C100.906 18.9414 101.031 18.8229 101.18 18.7403C101.329 18.6578 101.496 18.6139 101.667 18.6128H105.319C105.401 18.6142 105.481 18.6335 105.554 18.6694C105.627 18.7054 105.692 18.7571 105.742 18.8207C105.859 18.9403 105.927 19.0993 105.931 19.266V19.2631L105.934 19.3076C105.933 19.4117 105.898 19.5127 105.835 19.5956L93.7529 36.8722L93.75 36.8752C93.6606 37.0187 93.5358 37.1372 93.3875 37.2198C93.2392 37.3024 93.0721 37.3462 92.9019 37.3473H89.2552L89.1743 37.3532C88.8717 37.3532 88.6289 37.1098 88.6289 36.8129L88.6349 36.7386L88.7488 36.5308C89.8651 34.6292 91.1263 32.8148 92.5214 31.1035C92.4894 30.9728 92.1189 29.8782 91.4097 27.8197L90.7774 25.9849L89.417 22.048C88.7878 20.228 88.4941 19.3403 88.4941 19.2779C88.4973 19.111 88.5648 18.9516 88.6829 18.8326C88.7337 18.7687 88.7983 18.7169 88.8719 18.681ZM130.916 18.2952H130.993V18.2894C131.837 18.1917 132.693 18.31 133.478 18.6331C134.27 18.9593 134.964 19.4832 135.491 20.1538C135.581 19.1235 135.86 18.6039 136.3 18.6039H139.905C139.997 18.6039 140.087 18.6254 140.169 18.6667C140.251 18.708 140.322 18.7679 140.375 18.8415C140.438 18.9127 140.483 18.9971 140.507 19.0881C140.531 19.1792 140.535 19.2745 140.516 19.367L138.575 31.6201V31.623C138.567 31.7498 138.533 31.8737 138.476 31.9874C138.419 32.1011 138.34 32.2024 138.242 32.2851C138.145 32.3679 138.032 32.4305 137.91 32.4692C137.788 32.508 137.659 32.5221 137.532 32.5108H134.263C133.852 32.5108 133.645 32.2584 133.645 31.7596V31.7537C133.656 31.5646 133.688 31.3773 133.741 31.1955L133.735 31.2252C133.774 31.0886 133.807 30.9461 133.837 30.7769L133.831 30.7828C133.241 31.436 132.492 31.9496 131.608 32.2792L131.656 32.2614C130.781 32.6295 129.822 32.8344 128.812 32.8463H128.827C128.019 32.8867 127.211 32.7615 126.454 32.4785C125.698 32.1958 125.009 31.7618 124.43 31.2035C123.412 30.1259 122.786 28.6744 122.786 27.0805C122.786 26.9795 122.786 26.8756 122.792 26.7895V26.7123C122.789 24.5167 123.649 22.4062 125.189 20.8277L125.195 20.8218C126.604 19.272 128.644 18.2952 130.916 18.2952ZM77.1494 18.2952H77.1673L77.1724 18.2927C78.0168 18.2028 78.8705 18.325 79.6548 18.6483C80.4463 18.9744 81.1411 19.4945 81.6741 20.1597C81.761 19.1295 82.0396 18.6099 82.4801 18.6099H86.0849C86.1767 18.6099 86.2672 18.6314 86.3489 18.6727C86.4307 18.7139 86.5014 18.7738 86.5554 18.8474C86.6167 18.9181 86.6613 19.0013 86.6862 19.0912C86.7111 19.181 86.7155 19.2752 86.6992 19.367L84.7545 31.6201V31.623C84.7466 31.7498 84.7131 31.8737 84.6561 31.9874C84.599 32.1011 84.5195 32.2024 84.4223 32.2851C84.3251 32.3679 84.2121 32.4305 84.0901 32.4692C83.968 32.508 83.8393 32.5221 83.7117 32.5108H80.4455C80.038 32.5108 79.8282 32.2584 79.8282 31.7596V31.7537C79.8372 31.4033 79.9061 31.0649 80.017 30.7739L80.014 30.7769C79.3997 31.4271 78.6386 31.9377 77.7427 32.2762L77.7906 32.2584C76.9306 32.6236 75.9867 32.8284 74.9919 32.8433H75.0069L74.7192 32.8492C73.1201 32.8492 71.6706 32.2206 70.6101 31.2005C70.0515 30.6124 69.6183 29.9189 69.3363 29.1612C69.0542 28.4032 68.9292 27.5965 68.9689 26.7895V26.7123C68.966 24.5167 69.8258 22.4062 71.3661 20.8277L71.3721 20.8218C72.7745 19.272 74.8151 18.2952 77.0834 18.2952H77.1494ZM144.735 11.7188L144.783 11.7218H148.283L148.328 11.7188C148.407 11.7191 148.485 11.7354 148.557 11.7665C148.629 11.7976 148.694 11.843 148.748 11.8999V11.897C148.851 12.0321 148.906 12.1968 148.906 12.3661L148.903 12.4314L145.829 31.626V31.6319C145.829 31.8682 145.734 32.0947 145.566 32.2618C145.397 32.4288 145.169 32.5226 144.93 32.5226L144.834 32.5167H141.688C141.6 32.5172 141.513 32.4986 141.434 32.4622C141.354 32.4257 141.283 32.3724 141.226 32.3059C141.158 32.236 141.109 32.1497 141.085 32.0556C141.06 31.9614 141.06 31.8625 141.086 31.7685L144.166 12.2384V12.2354C144.178 12.0942 144.243 11.9626 144.349 11.8669C144.454 11.7712 144.592 11.7183 144.735 11.7188ZM109.43 11.7521C109.555 11.7154 109.686 11.7051 109.814 11.7218L117.332 11.7188C119.022 11.6323 120.697 12.0669 122.127 12.9628L122.139 12.9717C122.758 13.4335 123.25 14.0433 123.567 14.7443C123.882 15.4422 124.015 16.2077 123.952 16.9699C123.952 16.9653 123.952 16.9607 123.952 16.9561V16.9799C123.952 16.9766 123.952 16.9732 123.952 16.9699C124.021 18.1228 123.852 19.2775 123.454 20.3634C123.056 21.4521 122.437 22.4486 121.636 23.2916C120.026 24.7686 117.911 25.5876 115.717 25.5841C115.335 25.5878 114.953 25.568 114.573 25.5247C114.225 25.492 113.925 25.4772 113.674 25.4772H113.671C113.386 25.4802 113.107 25.5039 112.865 25.5484H112.856C112.595 25.5849 112.35 25.6906 112.145 25.8543H112.142C111.955 26.0057 111.835 26.2245 111.81 26.4629L110.956 31.9081V31.914C110.922 32.0846 110.829 32.2382 110.694 32.3486C110.558 32.4591 110.388 32.5195 110.213 32.5197H106.302C106.211 32.5202 106.121 32.4989 106.039 32.4575C105.958 32.4162 105.888 32.356 105.835 32.2822C105.775 32.2114 105.731 32.1285 105.707 32.0393C105.683 31.95 105.678 31.8566 105.694 31.7655L108.771 12.6095C108.774 12.481 108.804 12.3545 108.859 12.2383C108.915 12.122 108.994 12.0186 109.093 11.9349C109.191 11.8511 109.306 11.7888 109.43 11.7521ZM55.5591 11.7598C55.679 11.7214 55.8058 11.7085 55.9312 11.7218L63.5063 11.7248C65.1891 11.6437 66.8561 12.0791 68.2797 12.9717L68.2917 12.9806C68.9113 13.4424 69.4025 14.0522 69.7196 14.7532C70.0352 15.4511 70.1679 16.2167 70.1054 16.9788C70.1051 16.9742 70.1049 16.9696 70.1046 16.965V16.9888C70.1049 16.9855 70.1051 16.9822 70.1054 16.9788C70.1736 18.1317 70.0039 19.2863 69.6066 20.3721C69.2083 21.4608 68.5897 22.4573 67.7886 23.3004C66.2307 24.7241 64.1522 25.593 61.8672 25.593C61.4858 25.5966 61.1045 25.5768 60.7256 25.5336C60.378 25.5009 60.0783 25.4861 59.8266 25.4861H59.8236C59.5544 25.4872 59.2857 25.511 59.0205 25.5574H59.0116C58.7513 25.5938 58.5058 25.6995 58.3014 25.8632H58.2984C58.1129 26.0159 57.9947 26.2342 57.9688 26.4718L57.1148 31.6349C57.1121 31.7634 57.0821 31.8899 57.0267 32.0062C56.9714 32.1224 56.8919 32.2258 56.7935 32.3096C56.6951 32.3933 56.58 32.4556 56.4557 32.4923C56.3314 32.529 56.2006 32.5394 56.072 32.5226H52.4642C52.3728 32.5232 52.2825 32.5018 52.2012 32.4605C52.1198 32.4192 52.0497 32.359 51.9968 32.2851C51.9366 32.2144 51.8928 32.1316 51.8685 32.0423C51.8441 31.953 51.8399 31.8596 51.8559 31.7685L54.9363 12.6125V12.6065C54.9364 12.4816 54.9631 12.3581 55.0145 12.2441C55.0659 12.13 55.141 12.028 55.2348 11.9446C55.3286 11.8611 55.4391 11.7982 55.5591 11.7598ZM130.652 29.0489L130.796 29.0459L130.802 29.04H130.874C131.401 29.041 131.924 28.939 132.412 28.7398C132.9 28.5406 133.343 28.2481 133.717 27.8791C134.457 27.1755 134.916 26.1838 134.916 25.0882V25.0229L134.919 24.8804C134.919 24.5047 134.841 24.1329 134.69 23.7885C134.538 23.4441 134.316 23.1346 134.038 22.8793L134.041 22.8823C133.478 22.3983 132.743 22.1044 131.937 22.1044L131.835 22.1074H131.743C130.628 22.1074 129.621 22.5616 128.899 23.295C128.165 24.0253 127.712 25.0318 127.712 26.1422V26.2224L127.709 26.356C127.709 26.7203 127.785 27.0807 127.933 27.4145C128.08 27.7482 128.296 28.0479 128.566 28.2948L128.56 28.2918C129.145 28.7814 129.886 29.0496 130.652 29.0489ZM76.7718 29.0489L76.9216 29.0459H76.9246H76.9306H77.0325C78.0984 29.0469 79.1231 28.6382 79.8912 27.9058C80.6313 27.2022 81.0898 26.2165 81.0898 25.1209V25.0229L81.0927 24.8774C81.0934 24.5024 81.0157 24.1313 80.8646 23.7874C80.7135 23.4436 80.4923 23.1344 80.2148 22.8793L80.2178 22.8823C79.6544 22.3983 78.9203 22.1044 78.1142 22.1044L78.0123 22.1074H77.9135C76.7988 22.1074 75.7949 22.5616 75.0728 23.295C74.3386 24.0253 73.8862 25.0318 73.8862 26.1422V26.2224L73.8832 26.362C73.883 26.7232 73.9567 27.0807 74.0998 27.4129C74.243 27.7451 74.4527 28.0451 74.7162 28.2948L74.7132 28.2918C75.2646 28.7639 75.9867 29.0489 76.7718 29.0489ZM113.407 16.4247L112.601 21.4453L112.607 21.4572L114.108 21.41C115.203 21.4841 116.295 21.2361 117.248 20.6971L117.251 20.6941C117.633 20.3674 117.928 19.9522 118.109 19.4855C118.289 19.0191 118.351 18.5158 118.288 18.0201L118.291 17.9122C118.292 17.6654 118.241 17.4212 118.142 17.1945C118.044 16.9678 117.9 16.7634 117.719 16.5939C117.401 16.297 116.997 16.0892 116.532 16.0061L116.589 16.012C116.089 15.9437 115.576 15.9081 115.058 15.9081L114.875 15.9111H114.024C113.95 15.9045 113.875 15.9126 113.803 15.9349C113.732 15.9572 113.665 15.9933 113.608 16.041C113.551 16.0887 113.503 16.1472 113.469 16.213C113.434 16.2788 113.413 16.3508 113.407 16.4247ZM59.5329 16.4247L58.7269 21.4453L58.6849 21.4423C60.1908 21.5932 61.7115 21.4023 63.1317 20.8841L63.1407 20.8782C63.504 20.6423 63.8047 20.3234 64.0174 19.9482C64.2302 19.5731 64.3488 19.1528 64.3633 18.7227C64.5521 17.5707 64.3603 16.8077 63.794 16.4484L63.8239 16.4633C62.9659 16.0323 62.0056 15.8414 61.0462 15.9111H60.1502C60.0756 15.9041 60.0003 15.912 59.9287 15.9341C59.8571 15.9562 59.7907 15.9923 59.7332 16.04C59.6758 16.0878 59.6285 16.1464 59.5942 16.2125C59.5598 16.2785 59.539 16.3506 59.5329 16.4247Z" fill="white"/>
</g>
<path d="M24.0502 39.2037H18.8462C18.7162 39.2107 18.5865 39.1863 18.4681 39.1324C18.3496 39.0786 18.2459 38.9969 18.1658 38.8944C18.084 38.7897 18.0253 38.6689 17.9933 38.54C17.9613 38.411 17.9569 38.2768 17.9802 38.146C18.0627 37.6491 18.1658 36.9935 18.2936 36.1605L18.5286 34.6615C18.7625 33.157 19.0017 31.6532 19.2462 30.1503V30.1091L19.6338 27.7091L19.84 26.4329V26.4226C19.9884 25.505 20.1059 24.7772 20.1905 24.235C20.1952 24.1248 20.2224 24.0168 20.2706 23.9176C20.3188 23.8185 20.3869 23.7303 20.4707 23.6585C20.5544 23.5868 20.652 23.533 20.7573 23.5006C20.8627 23.4682 20.9737 23.4578 21.0832 23.47H24.2172C25.7207 23.4867 27.2215 23.3401 28.6934 23.0329C30.9095 22.5907 32.9653 21.5585 34.6438 20.0454C36.1144 18.6325 37.2185 16.8823 37.8602 14.9465C38.1736 14.0476 38.4169 13.1239 38.5859 12.1878C38.6004 12.1012 38.6169 12.0517 38.6375 12.0352C38.6434 12.0273 38.6512 12.0209 38.6602 12.0166C38.6692 12.0122 38.6791 12.0102 38.689 12.0105H38.7096C38.7549 12.0296 38.7978 12.0538 38.8375 12.0827C39.9199 12.9012 40.6436 14.1074 40.858 15.4475C41.1013 16.8496 41.0745 18.2846 40.7756 19.6763C40.3851 22.3688 39.0233 24.8255 36.9468 26.5834C34.653 28.2184 31.8735 29.0294 29.0604 28.8843H28.1552C27.8183 28.8815 27.4922 29.0034 27.2398 29.2266C26.9781 29.4538 26.8038 29.7651 26.747 30.107L26.6645 30.507L25.5223 37.678L25.4811 37.9893C25.4216 38.335 25.2393 38.6477 24.9677 38.8697C24.7127 39.089 24.3865 39.2078 24.0502 39.2037ZM16.673 35.0801H10.5597C10.4157 35.0831 10.2727 35.0542 10.1412 34.9954C10.0096 34.9365 9.89274 34.8493 9.79894 34.7399C9.70123 34.6325 9.62913 34.5043 9.58806 34.3651C9.54699 34.2258 9.53802 34.079 9.56183 33.9358L14.3679 3.44161C14.4284 3.05037 14.6319 2.6955 14.939 2.44576C15.2357 2.18992 15.6153 2.05068 16.0071 2.05401H28.4068C29.0872 2.08082 29.7634 2.17154 30.4274 2.32411C31.215 2.47462 31.9902 2.69524 32.7407 2.98389C34.1063 3.46676 35.2903 4.35787 36.1324 5.53641C36.931 6.73931 37.3399 8.15891 37.3035 9.6023C37.2692 11.2761 36.9484 12.9316 36.3551 14.497C35.8877 15.9969 35.0777 17.3674 33.9891 18.5C32.9005 19.6326 31.5632 20.4963 30.083 21.0227C28.399 21.593 26.6343 21.8888 24.8563 21.8989C24.8357 21.9113 23.9491 21.9134 23.0007 21.9134L21.1451 21.8989C20.5572 21.8389 19.9694 22.0145 19.5107 22.387C19.0519 22.7596 18.7596 23.2988 18.6977 23.8865C18.6709 23.9979 18.0441 27.9009 16.9349 34.8739C16.9349 34.9066 16.9277 34.9388 16.9137 34.9683C16.8998 34.9979 16.8794 35.0239 16.8542 35.0446C16.8289 35.0654 16.7994 35.0802 16.7677 35.0881C16.736 35.096 16.703 35.0968 16.671 35.0904L16.673 35.0801Z" fill="white"/>
<defs>
<clipPath id="clip0_78_140">
<rect width="108.366" height="45.9376" fill="white" transform="translate(46.6338 0.53125)"/>
</clipPath>
</defs>
</svg>
