<svg width="102" height="102" viewBox="0 0 102 102" fill="none" xmlns="http://www.w3.org/2000/svg">
<circle cx="51" cy="51" r="51" fill="white"/>
<path d="M47.8545 42.2563V41.0887C48.3764 41.1832 48.8465 41.232 49.2655 41.232C49.746 41.232 50.1658 41.1687 50.5236 41.037L50.5237 41.037C50.7705 40.9459 51.0103 40.8538 51.24 40.7653C51.8213 40.5419 52.3482 40.3395 52.8327 40.2159C53.3168 40.0924 53.7383 40.0532 54.1099 40.1405C54.1996 40.1617 54.2908 40.1745 54.3837 40.179V42.2563C54.3837 43.9944 53.0173 45.42 51.3025 45.5152H50.9356C49.2208 45.42 47.8545 43.9944 47.8545 42.2563ZM51.2067 35.7769C52.651 35.815 53.8653 36.7958 54.2535 38.1262C52.9909 37.9408 51.7699 38.4105 50.5485 38.8805L50.5196 38.8916L50.5194 38.8917C50.2943 38.9785 50.0645 39.0666 49.8296 39.1533C49.6905 39.2045 49.173 39.3265 47.8596 39.0438C47.947 37.2553 49.4076 35.8223 51.2067 35.7769ZM39.4466 55.4056V59.0074H32.4726V39.1627H45.8474V42.2563C45.8474 43.4863 46.2716 44.619 46.9806 45.5163C44.7318 45.5583 42.6715 46.705 41.4494 48.6004L41.4494 48.6004C40.1392 50.6337 39.4466 52.9869 39.4466 55.4056ZM47.1082 47.5227H50.1153V50.4595C50.1153 51.0136 50.565 51.4632 51.1191 51.4632C51.6734 51.4632 52.1228 51.0135 52.1228 50.4595V47.5227H55.0241C56.6375 47.5227 58.1218 48.3317 58.9956 49.688L58.9956 49.688C60.0966 51.3962 60.6783 53.3732 60.6783 55.4056V59.0074H57.8511V53.6509C57.8511 53.0969 57.402 52.6474 56.8476 52.6474C56.2932 52.6474 55.8441 53.0969 55.8441 53.6509V59.0074H46.3943V53.6509C46.3943 53.0968 45.9451 52.6474 45.3906 52.6474C44.8365 52.6474 44.387 53.0968 44.387 53.6509V59.0074H41.4542V55.4056C41.4542 53.3732 42.0359 51.3962 43.1364 49.688C44.0107 48.3317 45.4948 47.5227 47.1082 47.5227ZM60.6828 48.6004C59.4798 46.7342 57.4638 45.5938 55.2557 45.5191C55.9657 44.6213 56.3912 43.4876 56.3912 42.2563V39.1627H69.4984V59.0074H62.6856V55.4056C62.6856 52.9869 61.9931 50.6337 60.6828 48.6004L60.6828 48.6004ZM70.5021 37.1554H56.0954C55.3882 35.1756 53.491 33.7673 51.2943 33.7673C51.2759 33.7673 51.2584 33.7679 51.2439 33.7683L51.2409 33.7684C51.2277 33.7689 51.2171 33.7692 51.2068 33.7693C51.1963 33.7692 51.1856 33.7689 51.1723 33.7684L51.1694 33.7683C51.1549 33.7679 51.1374 33.7673 51.1191 33.7673C48.875 33.7673 46.9561 35.1769 46.1963 37.1554H31.4688C30.9142 37.1554 30.465 37.6048 30.465 38.1589V60.0109C30.465 60.565 30.9141 61.0147 31.4688 61.0147H45.9583V65.6849H43.8238C43.2696 65.6849 42.8203 66.1343 42.8203 66.6886C42.8203 67.2427 43.2697 67.6921 43.8238 67.6921H57.7542C58.3083 67.6921 58.7578 67.2427 58.7578 66.6886C58.7578 66.1343 58.3084 65.6849 57.7542 65.6849H56.0323V61.0147H70.5021C71.0566 61.0147 71.5057 60.5649 71.5057 60.0109V38.1589C71.5057 37.6049 71.0565 37.1554 70.5021 37.1554ZM54.0253 65.6849H47.9658V61.0147H54.0253V65.6849Z" fill="#B78F63" stroke="#B78F63" stroke-width="0.4"/>
<path d="M40.446 41.535C40.446 40.9804 39.9968 40.5312 39.4425 40.5312H35.5203C34.9662 40.5312 34.5168 40.9804 34.5168 41.535V45.6433C34.5168 46.1973 34.9661 46.6471 35.5203 46.6471C36.075 46.6471 36.5241 46.1973 36.5241 45.6433V42.5385H39.4425C39.9968 42.5385 40.446 42.0891 40.446 41.535Z" fill="#B78F63" stroke="#B78F63" stroke-width="0.4"/>
<path d="M42.0284 42.3416L42.0285 42.3416L42.0077 42.3257C41.5665 41.99 41.4807 41.3605 41.8165 40.9194L42.0284 42.3416ZM42.0284 42.3416L42.029 42.342M42.0284 42.3416L42.029 42.342M42.029 42.342C42.2102 42.4795 42.4237 42.5468 42.6358 42.5468C42.938 42.5468 43.2378 42.41 43.4352 42.1508L43.4353 42.1506M42.029 42.342L43.4353 42.1506M43.4353 42.1506C43.7705 41.7096 43.6851 41.0799 43.2441 40.7441L43.2441 40.7441M43.4353 42.1506L43.2441 40.7441M43.2441 40.7441L43.2433 40.7435M43.2441 40.7441L43.2433 40.7435M43.2433 40.7435L43.2225 40.7279M43.2433 40.7435L43.2225 40.7279M43.2225 40.7279C42.7811 40.3924 42.152 40.4785 41.8166 40.9193L43.2225 40.7279Z" fill="#B78F63" stroke="#B78F63" stroke-width="0.4"/>
<path d="M50.4826 53.1563L50.3233 53.0353C50.6588 52.594 51.2882 52.5089 51.7296 52.8439L51.7311 52.8451L51.7311 52.8451L51.7514 52.8608C52.1917 53.1966 52.2772 53.8256 51.9422 54.2665C51.7446 54.5265 51.4447 54.6626 51.1427 54.6626C50.931 54.6626 50.7178 54.596 50.5366 54.4584L50.516 54.4431L50.5143 54.4418L50.5143 54.4418C50.0733 54.1061 49.9875 53.4763 50.3234 53.0352L50.4826 53.1563ZM50.4826 53.1563C50.751 52.8032 51.255 52.7348 51.6087 53.0032L50.4826 53.1563Z" fill="#B78F63" stroke="#B78F63" stroke-width="0.4"/>
</svg>
