<svg width="102" height="102" viewBox="0 0 102 102" fill="none" xmlns="http://www.w3.org/2000/svg">
<circle cx="51" cy="51" r="51" fill="white"/>
<g clip-path="url(#clip0_78_406)">
<path d="M69.2071 51.544C69.0381 51.1983 69.0381 50.8017 69.2071 50.456L70.7736 47.2515C71.6457 45.4673 70.9547 43.3406 69.2004 42.4098L66.0496 40.738C65.7097 40.5577 65.4766 40.2368 65.4101 39.8579L64.7939 36.3446C64.4507 34.3885 62.6413 33.0741 60.6753 33.3522L57.1436 33.8518C56.7624 33.9056 56.3855 33.783 56.1089 33.5155L53.5454 31.0356C52.118 29.6547 49.8818 29.6546 48.4545 31.0356L45.8909 33.5158C45.6142 33.7834 45.2373 33.9057 44.8562 33.852L41.3245 33.3525C39.3578 33.0741 37.5491 34.3888 37.2059 36.3449L36.5897 39.858C36.5232 40.237 36.2901 40.5578 35.9503 40.7382L32.7995 42.41C31.0452 43.3407 30.3541 45.4675 31.2263 47.2518L32.7927 50.4562C32.9617 50.802 32.9617 51.1985 32.7927 51.5442L31.2262 54.7486C30.3541 56.5329 31.0451 58.6595 32.7994 59.5903L35.9502 61.2621C36.2901 61.4424 36.5232 61.7633 36.5897 62.1422L37.2059 65.6555C37.5183 67.4363 39.0452 68.6851 40.8001 68.6849C40.9729 68.6849 41.1483 68.6728 41.3246 68.6478L44.8563 68.1483C45.2372 68.0942 45.6143 68.217 45.8909 68.4845L48.4545 70.9645C49.1683 71.655 50.0839 72.0002 50.9999 72.0001C51.9156 72 52.8318 71.6548 53.5453 70.9645L56.1089 68.4845C56.3855 68.217 56.7626 68.0948 57.1436 68.1483L60.6753 68.6478C62.6422 68.9261 64.4507 67.6115 64.7939 65.6554L65.4102 62.1423C65.4767 61.7633 65.7097 61.4425 66.0496 61.2621L69.2004 59.5903C70.9547 58.6596 71.6457 56.5328 70.7736 54.7486L69.2071 51.544ZM68.065 57.4504L64.9142 59.1222C63.9097 59.6553 63.2207 60.6034 63.0242 61.7236L62.408 65.2368C62.2919 65.8987 61.6801 66.3432 61.0145 66.2493L57.4829 65.7497C56.3566 65.5901 55.2421 65.9526 54.4247 66.7433L51.8611 69.2232C51.3782 69.6903 50.6217 69.6903 50.1387 69.2232L47.5751 66.7433C46.8842 66.075 45.9811 65.7128 45.0382 65.7128C44.8655 65.7128 44.6913 65.7249 44.5169 65.7496L40.9853 66.2492C40.3203 66.3432 39.7079 65.8986 39.5918 65.2368L38.9755 61.7235C38.779 60.6033 38.0901 59.6551 37.0854 59.1221L33.9346 57.4503C33.341 57.1354 33.1073 56.4159 33.4023 55.8122L34.9688 52.6077C35.4682 51.5859 35.4682 50.414 34.9688 49.3923L33.4023 46.1877C33.1073 45.5841 33.341 44.8646 33.9346 44.5497L37.0854 42.8779C38.09 42.3448 38.779 41.3966 38.9754 40.2764L39.5916 36.7632C39.7078 36.1014 40.3196 35.6568 40.9851 35.7508L44.5168 36.2504C45.6426 36.4098 46.7575 36.0474 47.5749 35.2567L50.1386 32.7768C50.6214 32.3097 51.378 32.3097 51.861 32.7768L54.4245 35.2567C55.242 36.0475 56.3567 36.4098 57.4827 36.2504L61.0144 35.7508C61.6794 35.6567 62.2918 36.1014 62.4078 36.7632L63.024 40.2765C63.2206 41.3967 63.9095 42.3449 64.9141 42.8779L68.0649 44.5497C68.6585 44.8646 68.8923 45.5841 68.5972 46.1877L67.0308 49.3922C66.5314 50.4139 66.5314 51.5859 67.0308 52.6076L68.5972 55.8121C68.8924 56.4159 68.6586 57.1355 68.065 57.4504Z" fill="#A06DA5"/>
<path d="M59.8504 42.1501C59.3775 41.6771 58.6105 41.6771 58.1375 42.1501L42.1506 58.137C41.6777 58.61 41.6777 59.3769 42.1506 59.8499C42.3871 60.0864 42.6971 60.2047 43.007 60.2047C43.317 60.2047 43.627 60.0865 43.8634 59.8499L59.8503 43.863C60.3235 43.39 60.3235 42.6231 59.8504 42.1501Z" fill="#A06DA5"/>
<path d="M46.1549 40.0993C43.7061 40.0993 41.7139 42.0916 41.7139 44.5404C41.7139 46.9892 43.7061 48.9814 46.1549 48.9814C48.6037 48.9814 50.596 46.9892 50.596 44.5404C50.596 42.0916 48.6037 40.0993 46.1549 40.0993ZM46.1549 46.559C45.0419 46.559 44.1363 45.6534 44.1363 44.5403C44.1363 43.4272 45.0419 42.5217 46.1549 42.5217C47.268 42.5217 48.1736 43.4272 48.1736 44.5403C48.1735 45.6534 47.268 46.559 46.1549 46.559Z" fill="#A06DA5"/>
<path d="M55.8444 53.0187C53.3956 53.0187 51.4033 55.011 51.4033 57.4597C51.4033 59.9085 53.3956 61.9008 55.8444 61.9008C58.2932 61.9008 60.2854 59.9085 60.2854 57.4597C60.2854 55.011 58.2932 53.0187 55.8444 53.0187ZM55.8444 59.4784C54.7313 59.4784 53.8257 58.5728 53.8257 57.4597C53.8257 56.3467 54.7312 55.4411 55.8444 55.4411C56.9575 55.4411 57.863 56.3467 57.863 57.4597C57.863 58.5728 56.9575 59.4784 55.8444 59.4784Z" fill="#A06DA5"/>
</g>
<defs>
<clipPath id="clip0_78_406">
<rect width="42" height="42" fill="white" transform="translate(30 30)"/>
</clipPath>
</defs>
</svg>
