<svg width="201" height="32" viewBox="0 0 201 32" fill="none" xmlns="http://www.w3.org/2000/svg">
<g clip-path="url(#clip0_78_25)">
<path fill-rule="evenodd" clip-rule="evenodd" d="M18.7489 0.0119587C22.6356 0.627571 26.058 2.61647 28.4983 5.46368C30.9089 8.27537 32.3671 11.9217 32.3671 15.9054C32.3671 20.3508 30.5577 24.376 27.6293 27.2883C24.7009 30.2006 20.6535 32.0001 16.1836 32.0001C11.7136 32.0001 7.70788 30.2125 4.77948 27.3238C1.85703 24.4411 0.0297601 20.4396 0 16.0179C0 15.7811 0.190465 15.5858 0.434498 15.5858C0.601155 15.5858 0.744004 15.6746 0.815428 15.8107C1.0178 16.1777 1.23802 16.5329 1.4761 16.8703C1.71418 17.2077 1.97012 17.5392 2.24987 17.8588C4.12476 20.0075 6.60675 21.3157 9.21969 21.7537C11.8802 22.1977 14.6837 21.7419 17.1121 20.3508C17.2549 20.268 17.4216 20.2739 17.5525 20.3508L22.3796 22.9554L20.4631 17.8174C20.4095 17.6694 20.4393 17.5155 20.5285 17.3971C22.2606 15.201 23.1117 12.5136 23.0463 9.82624C22.9808 7.19213 22.0285 4.55802 20.1536 2.40929C19.8857 2.10149 19.606 1.81144 19.3143 1.53915C19.0167 1.26094 18.7132 1.00641 18.3977 0.763716C18.2073 0.621652 18.1715 0.349362 18.3144 0.159942C18.3977 0.0533941 18.5227 -0.00579935 18.6537 -0.0117188H18.6715C18.6715 -0.0117188 18.7251 -0.0117188 18.7548 0.000119997" fill="white"/>
<path d="M144.515 11.7558C145.14 10.8028 145.926 10.051 146.86 9.50053C147.801 8.95003 148.842 8.67774 149.991 8.67774V14.307H148.521C147.188 14.307 146.188 14.5912 145.515 15.1653C144.849 15.7336 144.515 16.734 144.515 18.1665V26.2227H139.164V8.86124H144.515V11.7558ZM128.51 21.866C129.528 21.866 130.403 21.4931 131.123 20.7473C131.843 20.0015 132.2 18.9301 132.2 17.5449C132.2 16.1598 131.849 15.0884 131.153 14.3426C130.457 13.5967 129.593 13.2238 128.57 13.2238C127.546 13.2238 126.659 13.5908 125.975 14.3307C125.284 15.0647 124.939 16.142 124.939 17.5508C124.939 18.9596 125.278 20.0074 125.957 20.7532C126.635 21.4991 127.486 21.872 128.504 21.872L128.51 21.866ZM128.51 26.4713C126.802 26.4713 125.26 26.1102 123.897 25.3821C122.528 24.6541 121.457 23.6182 120.677 22.2686C119.898 20.919 119.505 19.3444 119.505 17.539C119.505 15.7336 119.904 14.1827 120.695 12.8272C121.487 11.4658 122.57 10.4239 123.951 9.70179C125.326 8.97371 126.873 8.61263 128.582 8.61263C130.29 8.61263 131.837 8.97371 133.212 9.70179C134.587 10.4299 135.671 11.4717 136.468 12.8272C137.26 14.1827 137.658 15.7573 137.658 17.539C137.658 19.3207 137.26 20.8953 136.456 22.2508C135.653 23.6123 134.557 24.6541 133.171 25.3762C131.784 26.1043 130.236 26.4654 128.528 26.4654L128.51 26.4713ZM118.916 21.7121V26.2227H116.195C114.255 26.2227 112.743 25.7491 111.66 24.808C110.577 23.8668 110.035 22.3218 110.035 20.1909V13.283H107.904V8.86716H110.035V4.62891H115.386V8.86124H118.892V13.2771H115.386V20.2441C115.386 20.7651 115.511 21.138 115.761 21.3629C116.011 21.5878 116.428 21.7062 117.011 21.7062H118.922L118.916 21.7121ZM100.065 8.67774C102.107 8.67774 103.744 9.33479 104.964 10.6548C106.184 11.9689 106.797 13.7802 106.797 16.0828V26.2227H101.476V16.7932C101.476 15.633 101.173 14.7273 100.571 14.088C99.9641 13.4428 99.1546 13.1232 98.1309 13.1232C97.1071 13.1232 96.2977 13.4428 95.6906 14.088C95.0834 14.7332 94.7858 15.633 94.7858 16.7932V26.2227H89.435V8.86124H94.7858V11.1639C95.3275 10.3944 96.0596 9.79058 96.9762 9.34663C97.8928 8.90268 98.9285 8.67774 100.071 8.67774H100.065ZM82.4651 15.8638C82.4651 14.9522 82.1497 14.2242 81.5247 13.6855C80.8998 13.1468 80.1141 12.8746 79.1796 12.8746C78.2452 12.8746 77.525 13.135 76.9119 13.65C76.2988 14.1709 75.9179 14.9049 75.7691 15.8579H82.4651V15.8638ZM87.941 17.2667C87.941 17.7639 87.9112 18.2848 87.8458 18.8235H75.7393C75.8227 19.9008 76.1738 20.7295 76.7869 21.2978C77.4 21.866 78.1559 22.1561 79.0546 22.1561C80.3879 22.1561 81.3164 21.5938 81.8402 20.475H87.5363C87.2446 21.6174 86.7149 22.6415 85.959 23.5531C85.1971 24.4646 84.2448 25.1809 83.0961 25.7018C81.9473 26.2227 80.6676 26.4772 79.251 26.4772C77.5428 26.4772 76.0191 26.1161 74.6858 25.3881C73.3526 24.66 72.305 23.6241 71.5551 22.2745C70.8051 20.9249 70.4301 19.3503 70.4301 17.5449C70.4301 15.7395 70.7992 14.165 71.5432 12.8154C72.2812 11.4658 73.3228 10.4299 74.6561 9.70179C75.9893 8.97371 77.525 8.61263 79.257 8.61263C80.989 8.61263 82.4473 8.96779 83.7627 9.67219C85.0781 10.3766 86.1018 11.3829 86.8458 12.6911C87.5839 13.9992 87.9589 15.5205 87.9589 17.2667H87.941ZM61.9544 8.67774C64.121 8.67774 65.8471 9.32887 67.1327 10.637C68.4124 11.9452 69.0552 13.7565 69.0552 16.0828V26.2227H63.7341V16.7932C63.7341 15.6744 63.4365 14.8043 62.8413 14.1946C62.2461 13.5849 61.4307 13.2771 60.3831 13.2771C59.3356 13.2771 58.5201 13.5849 57.9309 14.1946C57.3357 14.8043 57.0381 15.6744 57.0381 16.7932V26.2227H51.717V16.7932C51.717 15.6744 51.4194 14.8043 50.8242 14.1946C50.229 13.5849 49.4135 13.2771 48.366 13.2771C47.3184 13.2771 46.503 13.5849 45.9078 14.1946C45.3126 14.8043 45.015 15.6744 45.015 16.7932V26.2227H39.6641V8.86124H45.015V11.0396C45.5566 10.3115 46.2649 9.7373 47.1399 9.31111C48.0148 8.88492 49.0088 8.67182 50.1099 8.67182C51.4253 8.67182 52.5979 8.95003 53.6276 9.51237C54.6573 10.0747 55.4667 10.8679 56.05 11.9097C56.6571 10.9567 57.4785 10.1753 58.5201 9.57748C59.5617 8.97371 60.6986 8.67774 61.9306 8.67774H61.9544Z" fill="white"/>
<path d="M190.774 17.6337C190.774 16.4499 190.53 15.4258 190.042 14.5557C189.554 13.6855 188.911 13.0225 188.12 12.5668C187.328 12.111 186.471 11.8801 185.554 11.8801C184.638 11.8801 183.781 12.105 182.989 12.549C182.198 12.993 181.555 13.65 181.067 14.5083C180.579 15.3666 180.329 16.3907 180.329 17.5745C180.329 18.7584 180.573 19.7943 181.067 20.6881C181.555 21.5819 182.203 22.2567 183.007 22.7244C183.811 23.192 184.662 23.4228 185.554 23.4228C186.447 23.4228 187.328 23.192 188.12 22.7362C188.911 22.2804 189.554 21.6115 190.042 20.7295C190.53 19.8476 190.774 18.8176 190.774 17.6337ZM176.668 17.5686C176.668 15.8461 177.025 14.3248 177.745 12.993C178.466 11.667 179.448 10.6311 180.686 9.89713C181.924 9.16313 183.299 8.79021 184.799 8.79021C186.156 8.79021 187.34 9.05658 188.352 9.58341C189.364 10.1102 190.173 10.7732 190.774 11.5605V9.07434H194.369V26.2168H190.774V23.6655C190.167 24.4765 189.346 25.1513 188.304 25.69C187.263 26.2286 186.072 26.5009 184.739 26.5009C183.257 26.5009 181.9 26.1221 180.674 25.3644C179.442 24.6067 178.466 23.5471 177.745 22.1916C177.025 20.8361 176.668 19.2911 176.668 17.5686ZM174.793 9.07434V26.2168H171.228V9.08026H174.793V9.07434ZM173.043 6.80131C172.395 6.80131 171.853 6.5823 171.418 6.15018C170.984 5.71215 170.764 5.17349 170.764 4.5342C170.764 3.89491 170.984 3.35033 171.418 2.91822C171.859 2.48019 172.4 2.26709 173.043 2.26709C173.686 2.26709 174.204 2.48611 174.638 2.91822C175.079 3.35625 175.293 3.89491 175.293 4.5342C175.293 5.17349 175.073 5.71807 174.638 6.15018C174.198 6.5823 173.668 6.80131 173.043 6.80131ZM164.568 17.6278C164.568 16.4439 164.324 15.4199 163.83 14.5497C163.341 13.6796 162.699 13.0166 161.907 12.5608C161.115 12.105 160.258 11.8742 159.342 11.8742C158.425 11.8742 157.568 12.0991 156.776 12.5431C155.985 12.987 155.342 13.6441 154.854 14.5024C154.366 15.3607 154.116 16.3847 154.116 17.5686C154.116 18.7525 154.36 19.7884 154.854 20.6822C155.342 21.576 155.991 22.2508 156.794 22.7184C157.598 23.1861 158.449 23.4169 159.342 23.4169C160.235 23.4169 161.115 23.1861 161.907 22.7303C162.699 22.2745 163.341 21.6056 163.83 20.7236C164.318 19.8416 164.568 18.8117 164.568 17.6278ZM201.012 26.2168V3.19643H197.447V26.2227H201.012V26.2168ZM150.461 17.5686C150.461 15.8461 150.824 14.3248 151.539 12.993C152.259 11.667 153.241 10.6311 154.479 9.89713C155.717 9.16313 157.104 8.79021 158.622 8.79021C159.746 8.79021 160.86 9.03291 161.955 9.51829C163.05 10.0037 163.919 10.6548 164.568 11.4658V3.19643H168.169V26.2227H164.568V23.6419C163.984 24.4706 163.175 25.1572 162.145 25.6959C161.115 26.2345 159.931 26.5068 158.592 26.5068C157.092 26.5068 155.717 26.128 154.479 25.3703C153.241 24.6126 152.259 23.5531 151.539 22.1975C150.818 20.842 150.461 19.2971 150.461 17.5745V17.5686Z" fill="white"/>
<circle cx="11" cy="10" r="9" fill="white"/>
</g>
<defs>
<clipPath id="clip0_78_25">
<rect width="201" height="32" fill="white"/>
</clipPath>
</defs>
</svg>
