<svg width="11" height="18" viewBox="0 0 11 18" fill="none" xmlns="http://www.w3.org/2000/svg">
<path d="M0.461834 0.443949C0.153946 0.739912 2.95199e-06 1.11659 2.87201e-06 1.57399C2.79204e-06 2.03139 0.153946 2.40807 0.461834 2.70404L7.01145 9L0.461832 15.296C0.153944 15.5919 3.55179e-07 15.9686 2.75205e-07 16.426C1.95231e-07 16.8834 0.153943 17.2601 0.461831 17.5561C0.769719 17.852 1.16158 18 1.6374 18C2.11323 18 2.50509 17.852 2.81298 17.5561L10.5382 10.13C10.7061 9.96861 10.8253 9.79372 10.8959 9.60538C10.9653 9.41704 11 9.21525 11 9C11 8.78476 10.9653 8.58296 10.8959 8.39462C10.8253 8.20628 10.7061 8.03139 10.5382 7.86996L2.81298 0.443949C2.50509 0.147984 2.11323 3.69489e-07 1.63741 2.86293e-07C1.16158 2.03097e-07 0.769723 0.147984 0.461834 0.443949Z" fill="#142134"/>
</svg>
